<svg id="wave" style="transform:rotate(0deg); transition: 0.3s" viewBox="0 0 1440 490" version="1.1" xmlns="http://www.w3.org/2000/svg"><defs><linearGradient id="sw-gradient-0" x1="0" x2="0" y1="1" y2="0"><stop stop-color="rgba(59, 130, 246, 1)" offset="0%"></stop><stop stop-color="rgba(147, 197, 253, 1)" offset="100%"></stop></linearGradient></defs><path style="transform:translate(0, 0px); opacity:1" fill="url(#sw-gradient-0)" d="M0,147L120,138.8C240,131,480,114,720,147C960,180,1200,261,1440,269.5C1680,278,1920,212,2160,179.7C2400,147,2640,147,2880,179.7C3120,212,3360,278,3600,261.3C3840,245,4080,147,4320,114.3C4560,82,4800,114,5040,138.8C5280,163,5520,180,5760,171.5C6000,163,6240,131,6480,114.3C6720,98,6960,98,7200,98C7440,98,7680,98,7920,155.2C8160,212,8400,327,8640,334.8C8880,343,9120,245,9360,196C9600,147,9840,147,10080,187.8C10320,229,10560,310,10800,334.8C11040,359,11280,327,11520,261.3C11760,196,12000,98,12240,49C12480,0,12720,0,12960,57.2C13200,114,13440,229,13680,236.8C13920,245,14160,147,14400,122.5C14640,98,14880,147,15120,147C15360,147,15600,98,15840,130.7C16080,163,16320,278,16560,318.5C16800,359,17040,327,17160,310.3L17280,294L17280,490L17160,490C17040,490,16800,490,16560,490C16320,490,16080,490,15840,490C15600,490,15360,490,15120,490C14880,490,14640,490,14400,490C14160,490,13920,490,13680,490C13440,490,13200,490,12960,490C12720,490,12480,490,12240,490C12000,490,11760,490,11520,490C11280,490,11040,490,10800,490C10560,490,10320,490,10080,490C9840,490,9600,490,9360,490C9120,490,8880,490,8640,490C8400,490,8160,490,7920,490C7680,490,7440,490,7200,490C6960,490,6720,490,6480,490C6240,490,6000,490,5760,490C5520,490,5280,490,5040,490C4800,490,4560,490,4320,490C4080,490,3840,490,3600,490C3360,490,3120,490,2880,490C2640,490,2400,490,2160,490C1920,490,1680,490,1440,490C1200,490,960,490,720,490C480,490,240,490,120,490L0,490Z"></path><defs><linearGradient id="sw-gradient-1" x1="0" x2="0" y1="1" y2="0"><stop stop-color="rgba(59, 130, 246, 1)" offset="0%"></stop><stop stop-color="rgba(147, 197, 253, 1)" offset="100%"></stop></linearGradient></defs><path style="transform:translate(0, 50px); opacity:0.9" fill="url(#sw-gradient-1)" d="M0,343L120,310.3C240,278,480,212,720,155.2C960,98,1200,49,1440,98C1680,147,1920,294,2160,326.7C2400,359,2640,278,2880,261.3C3120,245,3360,294,3600,302.2C3840,310,4080,278,4320,294C4560,310,4800,376,5040,392C5280,408,5520,376,5760,375.7C6000,376,6240,408,6480,408.3C6720,408,6960,376,7200,318.5C7440,261,7680,180,7920,187.8C8160,196,8400,294,8640,277.7C8880,261,9120,131,9360,89.8C9600,49,9840,98,10080,155.2C10320,212,10560,278,10800,326.7C11040,376,11280,408,11520,375.7C11760,343,12000,245,12240,204.2C12480,163,12720,180,12960,220.5C13200,261,13440,327,13680,343C13920,359,14160,327,14400,302.2C14640,278,14880,261,15120,261.3C15360,261,15600,278,15840,236.8C16080,196,16320,98,16560,89.8C16800,82,17040,163,17160,204.2L17280,245L17280,490L17160,490C17040,490,16800,490,16560,490C16320,490,16080,490,15840,490C15600,490,15360,490,15120,490C14880,490,14640,490,14400,490C14160,490,13920,490,13680,490C13440,490,13200,490,12960,490C12720,490,12480,490,12240,490C12000,490,11760,490,11520,490C11280,490,11040,490,10800,490C10560,490,10320,490,10080,490C9840,490,9600,490,9360,490C9120,490,8880,490,8640,490C8400,490,8160,490,7920,490C7680,490,7440,490,7200,490C6960,490,6720,490,6480,490C6240,490,6000,490,5760,490C5520,490,5280,490,5040,490C4800,490,4560,490,4320,490C4080,490,3840,490,3600,490C3360,490,3120,490,2880,490C2640,490,2400,490,2160,490C1920,490,1680,490,1440,490C1200,490,960,490,720,490C480,490,240,490,120,490L0,490Z"></path><defs><linearGradient id="sw-gradient-2" x1="0" x2="0" y1="1" y2="0"><stop stop-color="rgba(59, 130, 246, 1)" offset="0%"></stop><stop stop-color="rgba(147, 197, 253, 1)" offset="100%"></stop></linearGradient></defs><path style="transform:translate(0, 100px); opacity:0.8" fill="url(#sw-gradient-2)" d="M0,343L120,359.3C240,376,480,408,720,359.3C960,310,1200,180,1440,147C1680,114,1920,180,2160,196C2400,212,2640,180,2880,155.2C3120,131,3360,114,3600,122.5C3840,131,4080,163,4320,147C4560,131,4800,65,5040,57.2C5280,49,5520,98,5760,138.8C6000,180,6240,212,6480,196C6720,180,6960,114,7200,122.5C7440,131,7680,212,7920,212.3C8160,212,8400,131,8640,114.3C8880,98,9120,147,9360,171.5C9600,196,9840,196,10080,236.8C10320,278,10560,359,10800,343C11040,327,11280,212,11520,187.8C11760,163,12000,229,12240,277.7C12480,327,12720,359,12960,334.8C13200,310,13440,229,13680,228.7C13920,229,14160,310,14400,310.3C14640,310,14880,229,15120,212.3C15360,196,15600,245,15840,220.5C16080,196,16320,98,16560,73.5C16800,49,17040,98,17160,122.5L17280,147L17280,490L17160,490C17040,490,16800,490,16560,490C16320,490,16080,490,15840,490C15600,490,15360,490,15120,490C14880,490,14640,490,14400,490C14160,490,13920,490,13680,490C13440,490,13200,490,12960,490C12720,490,12480,490,12240,490C12000,490,11760,490,11520,490C11280,490,11040,490,10800,490C10560,490,10320,490,10080,490C9840,490,9600,490,9360,490C9120,490,8880,490,8640,490C8400,490,8160,490,7920,490C7680,490,7440,490,7200,490C6960,490,6720,490,6480,490C6240,490,6000,490,5760,490C5520,490,5280,490,5040,490C4800,490,4560,490,4320,490C4080,490,3840,490,3600,490C3360,490,3120,490,2880,490C2640,490,2400,490,2160,490C1920,490,1680,490,1440,490C1200,490,960,490,720,490C480,490,240,490,120,490L0,490Z"></path></svg>