<?xml version="1.0" standalone="no"?>
<svg xmlns:xlink="http://www.w3.org/1999/xlink" id="wave" style="transform:rotate(180deg); transition: 0.3s" viewBox="0 0 1440 490" version="1.1" xmlns="http://www.w3.org/2000/svg"><defs><linearGradient id="sw-gradient-0" x1="0" x2="0" y1="1" y2="0"><stop stop-color="rgba(59, 130, 246, 1)" offset="0%"/><stop stop-color="rgba(147, 197, 253, 1)" offset="100%"/></linearGradient></defs><path style="transform:translate(0, 0px); opacity:1" fill="url(#sw-gradient-0)" d="M0,196L80,179.7C160,163,320,131,480,147C640,163,800,229,960,228.7C1120,229,1280,163,1440,114.3C1600,65,1760,33,1920,73.5C2080,114,2240,229,2400,277.7C2560,327,2720,310,2880,253.2C3040,196,3200,98,3360,81.7C3520,65,3680,131,3840,138.8C4000,147,4160,98,4320,81.7C4480,65,4640,82,4800,147C4960,212,5120,327,5280,375.7C5440,425,5600,408,5760,351.2C5920,294,6080,196,6240,179.7C6400,163,6560,229,6720,253.2C6880,278,7040,261,7200,285.8C7360,310,7520,376,7680,392C7840,408,8000,376,8160,334.8C8320,294,8480,245,8640,253.2C8800,261,8960,327,9120,326.7C9280,327,9440,261,9600,228.7C9760,196,9920,196,10080,236.8C10240,278,10400,359,10560,359.3C10720,359,10880,278,11040,261.3C11200,245,11360,294,11440,318.5L11520,343L11520,490L11440,490C11360,490,11200,490,11040,490C10880,490,10720,490,10560,490C10400,490,10240,490,10080,490C9920,490,9760,490,9600,490C9440,490,9280,490,9120,490C8960,490,8800,490,8640,490C8480,490,8320,490,8160,490C8000,490,7840,490,7680,490C7520,490,7360,490,7200,490C7040,490,6880,490,6720,490C6560,490,6400,490,6240,490C6080,490,5920,490,5760,490C5600,490,5440,490,5280,490C5120,490,4960,490,4800,490C4640,490,4480,490,4320,490C4160,490,4000,490,3840,490C3680,490,3520,490,3360,490C3200,490,3040,490,2880,490C2720,490,2560,490,2400,490C2240,490,2080,490,1920,490C1760,490,1600,490,1440,490C1280,490,1120,490,960,490C800,490,640,490,480,490C320,490,160,490,80,490L0,490Z"/><defs><linearGradient id="sw-gradient-1" x1="0" x2="0" y1="1" y2="0"><stop stop-color="rgba(59, 130, 246, 1)" offset="0%"/><stop stop-color="rgba(147, 197, 253, 1)" offset="100%"/></linearGradient></defs><path style="transform:translate(0, 50px); opacity:0.9" fill="url(#sw-gradient-1)" d="M0,49L80,106.2C160,163,320,278,480,277.7C640,278,800,163,960,122.5C1120,82,1280,114,1440,147C1600,180,1760,212,1920,196C2080,180,2240,114,2400,81.7C2560,49,2720,49,2880,57.2C3040,65,3200,82,3360,122.5C3520,163,3680,229,3840,277.7C4000,327,4160,359,4320,359.3C4480,359,4640,327,4800,277.7C4960,229,5120,163,5280,155.2C5440,147,5600,196,5760,187.8C5920,180,6080,114,6240,122.5C6400,131,6560,212,6720,269.5C6880,327,7040,359,7200,383.8C7360,408,7520,425,7680,367.5C7840,310,8000,180,8160,171.5C8320,163,8480,278,8640,302.2C8800,327,8960,261,9120,212.3C9280,163,9440,131,9600,98C9760,65,9920,33,10080,57.2C10240,82,10400,163,10560,236.8C10720,310,10880,376,11040,343C11200,310,11360,180,11440,114.3L11520,49L11520,490L11440,490C11360,490,11200,490,11040,490C10880,490,10720,490,10560,490C10400,490,10240,490,10080,490C9920,490,9760,490,9600,490C9440,490,9280,490,9120,490C8960,490,8800,490,8640,490C8480,490,8320,490,8160,490C8000,490,7840,490,7680,490C7520,490,7360,490,7200,490C7040,490,6880,490,6720,490C6560,490,6400,490,6240,490C6080,490,5920,490,5760,490C5600,490,5440,490,5280,490C5120,490,4960,490,4800,490C4640,490,4480,490,4320,490C4160,490,4000,490,3840,490C3680,490,3520,490,3360,490C3200,490,3040,490,2880,490C2720,490,2560,490,2400,490C2240,490,2080,490,1920,490C1760,490,1600,490,1440,490C1280,490,1120,490,960,490C800,490,640,490,480,490C320,490,160,490,80,490L0,490Z"/></svg>