<svg
               width="44"
               height="47"
               viewBox="0 0 33 47"
               fill="none"
               xmlns="http://www.w3.org/2000/svg"
               >
               <circle
                  cx="16.6667"
                  cy="30.9998"
                  r="1.66667"
                  transform="rotate(-90 16.6667 30.9998)"
                  fill="white"
                  />
               <circle
                  cx="1.99992"
                  cy="30.9998"
                  r="1.66667"
                  transform="rotate(-90 1.99992 30.9998)"
                  fill="white"
                  />
               <circle
                  cx="30.9999"
                  cy="30.9998"
                  r="1.66667"
                  transform="rotate(-90 30.9999 30.9998)"
                  fill="white"
                  />
               <circle
                  cx="16.6667"
                  cy="16.3333"
                  r="1.66667"
                  transform="rotate(-90 16.6667 16.3333)"
                  fill="white"
                  />
               <circle
                  cx="1.99992"
                  cy="16.3333"
                  r="1.66667"
                  transform="rotate(-90 1.99992 16.3333)"
                  fill="white"
                  />
               <circle
                  cx="30.9999"
                  cy="16.3333"
                  r="1.66667"
                  transform="rotate(-90 30.9999 16.3333)"
                  fill="white"
                  />
               <circle
                  cx="16.6667"
                  cy="45.3333"
                  r="1.66667"
                  transform="rotate(-90 16.6667 45.3333)"
                  fill="white"
                  />
               <circle
                  cx="16.6667"
                  cy="1.66683"
                  r="1.66667"
                  transform="rotate(-90 16.6667 1.66683)"
                  fill="white"
                  />
               <circle
                  cx="1.99992"
                  cy="45.3333"
                  r="1.66667"
                  transform="rotate(-90 1.99992 45.3333)"
                  fill="white"
                  />
               <circle
                  cx="1.99992"
                  cy="1.66683"
                  r="1.66667"
                  transform="rotate(-90 1.99992 1.66683)"
                  fill="white"
                  />
               <circle
                  cx="30.9999"
                  cy="45.3333"
                  r="1.66667"
                  transform="rotate(-90 30.9999 45.3333)"
                  fill="white"
                  />
               <circle
                  cx="30.9999"
                  cy="1.66683"
                  r="1.66667"
                  transform="rotate(-90 30.9999 1.66683)"
                  fill="white"
                  />
            </svg>